<?xml version="1.0" encoding="UTF-8" standalone="no"?>
<!DOCTYPE svg PUBLIC "-//W3C//DTD SVG 1.1//EN"
 "http://www.w3.org/Graphics/SVG/1.1/DTD/svg11.dtd">
<!-- Generated by graphviz version 2.43.0 (0)
 -->
<!-- Title: G Pages: 1 -->
<svg width="1275pt" height="246pt"
 viewBox="0.00 0.00 1275.00 246.00" xmlns="http://www.w3.org/2000/svg" xmlns:xlink="http://www.w3.org/1999/xlink">
<g id="graph0" class="graph" transform="scale(1 1) rotate(0) translate(4 242)">
<title>G</title>
<polygon fill="white" stroke="transparent" points="-4,4 -4,-242 1271,-242 1271,4 -4,4"/>
<!-- data.azurerm_client_config.current -->
<g id="node1" class="node">
<title>data.azurerm_client_config.current</title>
<polygon fill="none" stroke="black" points="1267,-36 1010,-36 1010,0 1267,0 1267,-36"/>
<text text-anchor="middle" x="1138.5" y="-14.3" font-family="sans-serif" font-size="14.00">data.azurerm_client_config.current</text>
</g>
<!-- data.azurerm_container_registry.example -->
<g id="node2" class="node">
<title>data.azurerm_container_registry.example</title>
<polygon fill="none" stroke="black" points="956.5,-130 654.5,-130 654.5,-94 956.5,-94 956.5,-130"/>
<text text-anchor="middle" x="805.5" y="-108.3" font-family="sans-serif" font-size="14.00">data.azurerm_container_registry.example</text>
</g>
<!-- data.github_repositories.example -->
<g id="node3" class="node">
<title>data.github_repositories.example</title>
<polygon fill="none" stroke="black" points="929.5,-238 681.5,-238 681.5,-202 929.5,-202 929.5,-238"/>
<text text-anchor="middle" x="805.5" y="-216.3" font-family="sans-serif" font-size="14.00">data.github_repositories.example</text>
</g>
<!-- azurerm_container_app.example -->
<g id="node4" class="node">
<title>azurerm_container_app.example</title>
<polygon fill="none" stroke="black" points="1259.5,-171 1017.5,-171 1017.5,-135 1259.5,-135 1259.5,-171"/>
<text text-anchor="middle" x="1138.5" y="-149.3" font-family="sans-serif" font-size="14.00">azurerm_container_app.example</text>
</g>
<!-- azurerm_container_app.example&#45;&gt;data.azurerm_container_registry.example -->
<g id="edge1" class="edge">
<title>azurerm_container_app.example&#45;&gt;data.azurerm_container_registry.example</title>
<path fill="none" stroke="black" d="M1017.07,-138.08C999.12,-135.86 980.42,-133.54 961.88,-131.25"/>
<polygon fill="black" stroke="black" points="962.27,-127.77 951.91,-130.01 961.41,-134.71 962.27,-127.77"/>
</g>
<!-- azurerm_container_app.example&#45;&gt;data.github_repositories.example -->
<g id="edge2" class="edge">
<title>azurerm_container_app.example&#45;&gt;data.github_repositories.example</title>
<path fill="none" stroke="black" d="M1068.96,-171.06C1039.81,-178.41 1005.36,-186.65 974,-193 961.58,-195.52 948.6,-197.95 935.6,-200.26"/>
<polygon fill="black" stroke="black" points="934.91,-196.82 925.67,-202 936.12,-203.72 934.91,-196.82"/>
</g>
<!-- azurerm_container_app_environment.example -->
<g id="node5" class="node">
<title>azurerm_container_app_environment.example</title>
<polygon fill="none" stroke="black" points="974,-184 637,-184 637,-148 974,-148 974,-184"/>
<text text-anchor="middle" x="805.5" y="-162.3" font-family="sans-serif" font-size="14.00">azurerm_container_app_environment.example</text>
</g>
<!-- azurerm_container_app.example&#45;&gt;azurerm_container_app_environment.example -->
<g id="edge3" class="edge">
<title>azurerm_container_app.example&#45;&gt;azurerm_container_app_environment.example</title>
<path fill="none" stroke="black" d="M1017.07,-157.73C1006.38,-158.15 995.42,-158.58 984.39,-159.01"/>
<polygon fill="black" stroke="black" points="984.1,-155.52 974.25,-159.41 984.38,-162.52 984.1,-155.52"/>
</g>
<!-- azurerm_user_assigned_identity.example -->
<g id="node9" class="node">
<title>azurerm_user_assigned_identity.example</title>
<polygon fill="none" stroke="black" points="956,-76 655,-76 655,-40 956,-40 956,-76"/>
<text text-anchor="middle" x="805.5" y="-54.3" font-family="sans-serif" font-size="14.00">azurerm_user_assigned_identity.example</text>
</g>
<!-- azurerm_container_app.example&#45;&gt;azurerm_user_assigned_identity.example -->
<g id="edge4" class="edge">
<title>azurerm_container_app.example&#45;&gt;azurerm_user_assigned_identity.example</title>
<path fill="none" stroke="black" d="M1094.61,-134.87C1048.28,-115.33 980.19,-86.76 974,-85 965.37,-82.55 956.41,-80.29 947.34,-78.23"/>
<polygon fill="black" stroke="black" points="947.97,-74.78 937.46,-76.06 946.48,-81.62 947.97,-74.78"/>
</g>
<!-- azurerm_log_analytics_workspace.example -->
<g id="node6" class="node">
<title>azurerm_log_analytics_workspace.example</title>
<polygon fill="none" stroke="black" points="601,-168 287,-168 287,-132 601,-132 601,-168"/>
<text text-anchor="middle" x="444" y="-146.3" font-family="sans-serif" font-size="14.00">azurerm_log_analytics_workspace.example</text>
</g>
<!-- azurerm_container_app_environment.example&#45;&gt;azurerm_log_analytics_workspace.example -->
<g id="edge5" class="edge">
<title>azurerm_container_app_environment.example&#45;&gt;azurerm_log_analytics_workspace.example</title>
<path fill="none" stroke="black" d="M636.85,-158.54C628.3,-158.16 619.71,-157.78 611.17,-157.4"/>
<polygon fill="black" stroke="black" points="611.3,-153.9 601.16,-156.95 610.99,-160.89 611.3,-153.9"/>
</g>
<!-- azurerm_resource_group.example -->
<g id="node7" class="node">
<title>azurerm_resource_group.example</title>
<polygon fill="none" stroke="black" points="251,-130 0,-130 0,-94 251,-94 251,-130"/>
<text text-anchor="middle" x="125.5" y="-108.3" font-family="sans-serif" font-size="14.00">azurerm_resource_group.example</text>
</g>
<!-- azurerm_log_analytics_workspace.example&#45;&gt;azurerm_resource_group.example -->
<g id="edge6" class="edge">
<title>azurerm_log_analytics_workspace.example&#45;&gt;azurerm_resource_group.example</title>
<path fill="none" stroke="black" d="M292.63,-131.95C282.11,-130.68 271.55,-129.42 261.13,-128.16"/>
<polygon fill="black" stroke="black" points="261.53,-124.69 251.19,-126.97 260.7,-131.64 261.53,-124.69"/>
</g>
<!-- azurerm_role_assignment.example -->
<g id="node8" class="node">
<title>azurerm_role_assignment.example</title>
<polygon fill="none" stroke="black" points="1267,-90 1010,-90 1010,-54 1267,-54 1267,-90"/>
<text text-anchor="middle" x="1138.5" y="-68.3" font-family="sans-serif" font-size="14.00">azurerm_role_assignment.example</text>
</g>
<!-- azurerm_role_assignment.example&#45;&gt;data.azurerm_container_registry.example -->
<g id="edge7" class="edge">
<title>azurerm_role_assignment.example&#45;&gt;data.azurerm_container_registry.example</title>
<path fill="none" stroke="black" d="M1009.53,-87.47C995.19,-89.2 980.45,-90.98 965.79,-92.75"/>
<polygon fill="black" stroke="black" points="965.15,-89.3 955.65,-93.98 965.99,-96.25 965.15,-89.3"/>
</g>
<!-- azurerm_role_assignment.example&#45;&gt;azurerm_user_assigned_identity.example -->
<g id="edge8" class="edge">
<title>azurerm_role_assignment.example&#45;&gt;azurerm_user_assigned_identity.example</title>
<path fill="none" stroke="black" d="M1009.53,-66.59C995.34,-65.99 980.76,-65.37 966.24,-64.76"/>
<polygon fill="black" stroke="black" points="966.34,-61.26 956.2,-64.33 966.05,-68.25 966.34,-61.26"/>
</g>
<!-- azurerm_user_assigned_identity.example&#45;&gt;azurerm_resource_group.example -->
<g id="edge9" class="edge">
<title>azurerm_user_assigned_identity.example&#45;&gt;azurerm_resource_group.example</title>
<path fill="none" stroke="black" d="M654.87,-69.92C537.24,-79.29 374.81,-92.22 261.21,-101.27"/>
<polygon fill="black" stroke="black" points="260.75,-97.8 251.06,-102.08 261.3,-104.77 260.75,-97.8"/>
</g>
</g>
</svg>
